<?xml version="1.0" encoding="UTF-8" standalone="no"?>
<!-- Created with Inkscape (http://www.inkscape.org/) -->

<svg
   xmlns:dc="http://purl.org/dc/elements/1.1/"
   xmlns:cc="http://creativecommons.org/ns#"
   xmlns:rdf="http://www.w3.org/1999/02/22-rdf-syntax-ns#"
   xmlns:svg="http://www.w3.org/2000/svg"
   xmlns="http://www.w3.org/2000/svg"
   xmlns:sodipodi="http://sodipodi.sourceforge.net/DTD/sodipodi-0.dtd"
   xmlns:inkscape="http://www.inkscape.org/namespaces/inkscape"
   width="744.09448819"
   height="1052.3622047"
   id="svg2"
   version="1.1"
   inkscape:version="0.48.4 r9939"
   sodipodi:docname="dynkarken.svg">
  <defs
     id="defs4" />
  <sodipodi:namedview
     id="base"
     pagecolor="#ffffff"
     bordercolor="#666666"
     borderopacity="1.0"
     inkscape:pageopacity="0.0"
     inkscape:pageshadow="2"
     inkscape:zoom="0.70710678"
     inkscape:cx="312.89483"
     inkscape:cy="1128.8264"
     inkscape:document-units="px"
     inkscape:current-layer="layer1"
     showgrid="false"
     inkscape:window-width="1280"
     inkscape:window-height="776"
     inkscape:window-x="0"
     inkscape:window-y="24"
     inkscape:window-maximized="1" />
  <metadata
     id="metadata7">
    <rdf:RDF>
      <cc:Work
         rdf:about="">
        <dc:format>image/svg+xml</dc:format>
        <dc:type
           rdf:resource="http://purl.org/dc/dcmitype/StillImage" />
        <dc:title></dc:title>
      </cc:Work>
    </rdf:RDF>
  </metadata>
  <g
     inkscape:label="Layer 1"
     inkscape:groupmode="layer"
     id="layer1">
    <text
       xml:space="preserve"
       style="font-size:140px;font-style:normal;font-weight:normal;line-height:125%;letter-spacing:0px;word-spacing:0px;fill:#000000;fill-opacity:1;stroke:none;font-family:Sans"
       x="400.02042"
       y="331.61835"
       id="text2997"
       sodipodi:linespacing="125%"><tspan
         sodipodi:role="line"
         id="tspan2999"
         x="400.02042"
         y="331.61835" /></text>
    <g
       id="g3880"
       inkscape:export-filename="/home/arnfred/Code/dynkarken/static/images/dynkarken.png"
       inkscape:export-xdpi="200.28259"
       inkscape:export-ydpi="200.28259"
       style="fill:#000000;fill-opacity:0.82648402">
      <path
         style="fill:#000000;fill-opacity:0.82648405;stroke:none"
         d="m 60.75,49.46875 c 30.785259,1.831311 44.5971,24.796912 45,48.03125 0.42,24.77998 -14.700034,49.84375 -49,49.84375 l -38.5,0 -0.0625,-97.8125 -166.15625,0 0,126.65625 166.21875,0 101.84375,0 12.875,-29.96875 -27.59375,-67.90625 19.90625,0 10.5,29.84375 6.5625,19.4375 7.15625,-19.03125 12.59375,-30.25 18.90625,0 -42.15625,97.875 517.9375,0 0,-28.84375 -17.09375,0 0,-36.125 c 0,-10.49999 -5.73626,-18.46875 -16.65625,-18.46875 -10.49998,0 -17.625,8.81251 -17.625,19.3125 l 0,35.28125 -16.9375,0 0,-69.15625 15.25,0 1.125,9.375 c 7,-6.859993 14.00751,-10.34375 22.6875,-10.34375 16.23999,0 29.25,12.175022 29.25,33.875 l 0,-61.625 -383.65625,0 0,56.5625 23.25,-27.71875 20.4375,0 0,1 -28.15625,31.5 32.0625,35.28125 0,1.25 -20.5625,0 -27.03125,-31.21875 0,31.21875 -17.09375,0 0,-97.875 z M 450.53125,49.5 l 17.0625,0 0,56.53125 23.25,-27.71875 20.4375,0 0,1 -28.15625,31.5 32.0625,35.28125 0,1.25 -20.5625,0 -27.03125,-31.21875 0,31.21875 -17.0625,0 0,-60.34375 -5.6875,10.9375 c -3.5,-2.939997 -6.71251,-4.5 -12.3125,-4.5 -8.95999,0 -17.21875,4.760013 -17.21875,17.5 l 0,36.40625 -17.0625,0 0,-69.03125 15.8125,0 1.25,8 c 5.31999,-8.539991 12.46875,-9.8125 19.46875,-9.8125 6.01034,0 11.80664,1.992439 15.75,4.875 z m 206.24771,-0.03125 0.002,126.71875 442.75004,0 -0,-126.71875 z m -620.21646,17.375 0,62.71875 20.1875,0 c 22.259978,0 31.07625,-16.22752 30.65625,-32.1875 C 86.986251,82.115015 78.029979,66.84375 56.75,66.84375 z m 512.15625,9.375 c 23.09998,0 37.535,14.298779 34.875,42.71875 l -53.90625,0 c 1.12,8.53999 8.52251,14.6875 20.5625,14.6875 6.3,0 14.58001,-2.3775 18.5,-6.4375 l 10.90625,10.78125 c -7.27999,7.55999 -19.15626,11.1875 -29.65625,11.1875 -23.79997,0 -37.96875,-14.69252 -37.96875,-36.8125 0,-20.999979 14.28752,-36.125 36.6875,-36.125 z m -197.75,0.4375 c 0.62117,-0.0202 1.245,-0.0044 1.875,0 9.23999,0 18.08,4.327507 22,11.1875 l 0.53125,-9.53125 16.40625,0 0,69.03125 -16.125,0 -0.8125,-10.09375 c -3.92,8.11999 -14.70626,12.0475 -22.40625,12.1875 -20.43998,0.14 -35.5625,-12.46752 -35.5625,-36.6875 0,-23.056227 14.8374,-35.467675 34.09375,-36.09375 z m -130.4375,0.5625 c 16.23999,0 29.25,12.175022 29.25,33.875 l 0,36.25 -17.09375,0 0,-36.125 c 0,-10.49999 -5.73626,-18.46875 -16.65625,-18.46875 -10.49998,0 -17.625,8.81251 -17.625,19.3125 l 0,35.28125 -16.9375,0 0,-69.15625 15.25,0 1.125,9.375 c 7,-6.859993 14.00751,-10.34375 22.6875,-10.34375 z m 328.75,14.125 c -9.23999,0 -16.7925,4.477509 -19.3125,13.4375 l 37.25,0 c -1.12,-8.959991 -8.13751,-13.4375 -17.9375,-13.4375 z M 354.375,91.90625 c -11.33999,0 -20.4375,7.683763 -20.4375,20.84375 0,13.15999 9.09751,21 20.4375,21 26.87997,0 26.87997,-41.84375 0,-41.84375 z"
         id="rect3001"
         inkscape:connector-curvature="0"
         sodipodi:nodetypes="ccsccccccccccccccccccssscccccscccccccccccccccccccccccccccccccsscccccscccccccccscscsccsccssssccccccccssssccssscccccssccsssss"
         inkscape:export-filename="/home/arnfred/Code/dynkarken/static/images/dynkarken.png"
         inkscape:export-xdpi="200.03"
         inkscape:export-ydpi="200.03" />
    </g>
    <g
       style="font-size:140px;font-style:normal;font-weight:normal;line-height:125%;letter-spacing:0px;word-spacing:0px;fill:#000000;fill-opacity:1;stroke:none;font-family:Sans"
       id="text2993" />
    <flowRoot
       xml:space="preserve"
       id="flowRoot3860"
       style="font-size:140px;font-style:normal;font-weight:normal;line-height:125%;letter-spacing:0px;word-spacing:0px;fill:#000000;fill-opacity:1;stroke:none;font-family:Sans"><flowRegion
         id="flowRegion3862"><rect
           id="rect3864"
           width="208"
           height="150"
           x="-333"
           y="-105.63781" /></flowRegion><flowPara
         id="flowPara3866">dfsgs</flowPara></flowRoot>    <flowRoot
       xml:space="preserve"
       id="flowRoot3872"
       style="fill:black;stroke:none;stroke-opacity:1;stroke-width:1px;stroke-linejoin:miter;stroke-linecap:butt;fill-opacity:1;font-family:Sans;font-style:normal;font-weight:normal;font-size:140px;line-height:125%;letter-spacing:0px;word-spacing:0px"><flowRegion
         id="flowRegion3874"><rect
           id="rect3876"
           width="713"
           height="305"
           x="-10"
           y="-21.637814" /></flowRegion><flowPara
         id="flowPara3878"></flowPara></flowRoot>  </g>
</svg>
